<?xml version="1.0" encoding="UTF-8" standalone="no"?>
<!DOCTYPE svg PUBLIC "-//W3C//DTD SVG 1.1//EN"
 "http://www.w3.org/Graphics/SVG/1.1/DTD/svg11.dtd">
<!-- Generated by graphviz version 3.0.0 (20220226.1711)
 -->
<!-- Title: G Pages: 1 -->
<svg width="1056pt" height="1033pt"
 viewBox="0.00 0.00 1055.79 1032.90" xmlns="http://www.w3.org/2000/svg" xmlns:xlink="http://www.w3.org/1999/xlink">
<g id="graph0" class="graph" transform="scale(1 1) rotate(0) translate(4 1028.9)">
<title>G</title>
<polygon fill="white" stroke="transparent" points="-4,4 -4,-1028.9 1051.79,-1028.9 1051.79,4 -4,4"/>
<!-- csf -->
<g id="node1" class="node">
<title>csf</title>
<ellipse fill="none" stroke="black" cx="523.61" cy="-511.58" rx="94.52" ry="94.52"/>
<ellipse fill="none" stroke="black" cx="523.61" cy="-511.58" rx="98.51" ry="98.51"/>
<text text-anchor="middle" x="523.61" y="-541.98" font-family="Indie Flower" font-size="22.00">Common</text>
<text text-anchor="middle" x="523.61" y="-517.98" font-family="Indie Flower" font-size="22.00">Spreadsheet</text>
<text text-anchor="middle" x="523.61" y="-493.98" font-family="Indie Flower" font-size="22.00">Format</text>
<text text-anchor="middle" x="523.61" y="-469.98" font-family="Indie Flower" font-size="22.00">(JS Object)</text>
</g>
<!-- xls2 -->
<g id="node2" class="node">
<title>xls2</title>
<ellipse fill="#00ff00" stroke="#00ff00" cx="997.58" cy="-511.58" rx="50.41" ry="39.7"/>
<text text-anchor="middle" x="997.58" y="-517.98" font-family="Indie Flower" font-size="22.00">XLS</text>
<text text-anchor="middle" x="997.58" y="-493.98" font-family="Indie Flower" font-size="22.00">BIFF2</text>
</g>
<!-- csf&#45;&gt;xls2 -->
<g id="edge25" class="edge">
<title>csf&#45;&gt;xls2</title>
<path fill="none" stroke="#458b74" d="M622.39,-517.19C717.42,-518.98 858.03,-518.67 937.37,-516.26"/>
<polygon fill="#458b74" stroke="#458b74" points="937.8,-519.75 947.68,-515.93 937.57,-512.76 937.8,-519.75"/>
</g>
<!-- xls3 -->
<g id="node3" class="node">
<title>xls3</title>
<ellipse fill="#00ff00" stroke="#00ff00" cx="985.74" cy="-616.89" rx="48.58" ry="39.7"/>
<text text-anchor="middle" x="985.74" y="-623.29" font-family="Indie Flower" font-size="22.00">XLS</text>
<text text-anchor="middle" x="985.74" y="-599.29" font-family="Indie Flower" font-size="22.00">BIFF3</text>
</g>
<!-- csf&#45;&gt;xls3 -->
<g id="edge27" class="edge">
<title>csf&#45;&gt;xls3</title>
<path fill="none" stroke="#458b74" d="M618.68,-539C711.44,-561.98 849.59,-593.14 927.26,-608.33"/>
<polygon fill="#458b74" stroke="#458b74" points="926.87,-611.81 937.35,-610.27 928.19,-604.94 926.87,-611.81"/>
</g>
<!-- xls4 -->
<g id="node4" class="node">
<title>xls4</title>
<ellipse fill="#00ff00" stroke="#00ff00" cx="951.7" cy="-715.02" rx="48.17" ry="39.7"/>
<text text-anchor="middle" x="951.7" y="-721.42" font-family="Indie Flower" font-size="22.00">XLS</text>
<text text-anchor="middle" x="951.7" y="-697.42" font-family="Indie Flower" font-size="22.00">BIFF4</text>
</g>
<!-- csf&#45;&gt;xls4 -->
<g id="edge29" class="edge">
<title>csf&#45;&gt;xls4</title>
<path fill="none" stroke="#458b74" d="M610.42,-559.05C696.65,-602.03 826.1,-663.17 898.26,-694.7"/>
<polygon fill="#458b74" stroke="#458b74" points="897.06,-697.99 907.63,-698.76 899.85,-691.57 897.06,-697.99"/>
</g>
<!-- xls5 -->
<g id="node5" class="node">
<title>xls5</title>
<ellipse fill="#00ff00" stroke="#00ff00" cx="895.8" cy="-805.05" rx="50.82" ry="39.7"/>
<text text-anchor="middle" x="895.8" y="-811.45" font-family="Indie Flower" font-size="22.00">XLS</text>
<text text-anchor="middle" x="895.8" y="-787.45" font-family="Indie Flower" font-size="22.00">BIFF5</text>
</g>
<!-- csf&#45;&gt;xls5 -->
<g id="edge7" class="edge">
<title>csf&#45;&gt;xls5</title>
<path fill="none" stroke="blue" d="M597.71,-577.15C672.23,-638.22 784.86,-726.59 848.21,-773.36"/>
<polygon fill="blue" stroke="blue" points="846.31,-776.31 856.44,-779.4 850.45,-770.66 846.31,-776.31"/>
</g>
<!-- xls8 -->
<g id="node6" class="node">
<title>xls8</title>
<ellipse fill="#00ff00" stroke="#00ff00" cx="821.3" cy="-880.41" rx="48.17" ry="39.7"/>
<text text-anchor="middle" x="821.3" y="-886.81" font-family="Indie Flower" font-size="22.00">XLS</text>
<text text-anchor="middle" x="821.3" y="-862.81" font-family="Indie Flower" font-size="22.00">BIFF8</text>
</g>
<!-- csf&#45;&gt;xls8 -->
<g id="edge9" class="edge">
<title>csf&#45;&gt;xls8</title>
<path fill="none" stroke="blue" d="M581.29,-591.97C641.33,-669.31 733.48,-782.86 784.4,-841.8"/>
<polygon fill="blue" stroke="blue" points="781.8,-844.14 791,-849.39 787.09,-839.55 781.8,-844.14"/>
</g>
<!-- xlml -->
<g id="node7" class="node">
<title>xlml</title>
<ellipse fill="#00ff00" stroke="#00ff00" cx="721.05" cy="-942.48" rx="62.87" ry="39.7"/>
<text text-anchor="middle" x="721.05" y="-948.88" font-family="Indie Flower" font-size="22.00">SSML</text>
<text text-anchor="middle" x="721.05" y="-924.88" font-family="Indie Flower" font-size="22.00">(2003/4)</text>
</g>
<!-- csf&#45;&gt;xlml -->
<g id="edge5" class="edge">
<title>csf&#45;&gt;xlml</title>
<path fill="none" stroke="blue" d="M559.66,-603.72C598.81,-693.6 660.19,-826.63 694.96,-896.23"/>
<polygon fill="blue" stroke="blue" points="691.86,-897.85 699.48,-905.21 698.11,-894.7 691.86,-897.85"/>
</g>
<!-- xlsx -->
<g id="node8" class="node">
<title>xlsx</title>
<ellipse fill="#00ff00" stroke="#00ff00" cx="612.75" cy="-977.1" rx="43.68" ry="39.7"/>
<text text-anchor="middle" x="612.75" y="-983.5" font-family="Indie Flower" font-size="22.00">XLSX</text>
<text text-anchor="middle" x="612.75" y="-959.5" font-family="Indie Flower" font-size="22.00">XLSM</text>
</g>
<!-- csf&#45;&gt;xlsx -->
<g id="edge1" class="edge">
<title>csf&#45;&gt;xlsx</title>
<path fill="none" stroke="blue" d="M536.68,-609.66C553.49,-707.36 581.86,-853.31 599,-928.49"/>
<polygon fill="blue" stroke="blue" points="595.68,-929.66 601.34,-938.61 602.5,-928.08 595.68,-929.66"/>
</g>
<!-- xlsb -->
<g id="node9" class="node">
<title>xlsb</title>
<ellipse fill="#00ff00" stroke="#00ff00" cx="507.8" cy="-985.3" rx="54.39" ry="39.7"/>
<text text-anchor="middle" x="507.8" y="-991.7" font-family="Indie Flower" font-size="22.00">XLSB</text>
<text text-anchor="middle" x="507.8" y="-967.7" font-family="Indie Flower" font-size="22.00">BIFF12</text>
</g>
<!-- csf&#45;&gt;xlsb -->
<g id="edge3" class="edge">
<title>csf&#45;&gt;xlsb</title>
<path fill="none" stroke="blue" d="M514.71,-610.13C509.53,-709.25 504.98,-858.13 505.12,-935.15"/>
<polygon fill="blue" stroke="blue" points="501.62,-935.54 505.17,-945.53 508.62,-935.51 501.62,-935.54"/>
</g>
<!-- nums -->
<g id="node10" class="node">
<title>nums</title>
<ellipse fill="cyan" stroke="cyan" cx="371.79" cy="-960.59" rx="77.15" ry="22.76"/>
<text text-anchor="middle" x="371.79" y="-954.99" font-family="Indie Flower" font-size="22.00">NUMBERS</text>
</g>
<!-- csf&#45;&gt;nums -->
<g id="edge23" class="edge">
<title>csf&#45;&gt;nums</title>
<path fill="none" stroke="blue" d="M486.66,-603.37C450.44,-704.18 398.22,-860.67 378.95,-927.99"/>
<polygon fill="blue" stroke="blue" points="375.58,-927.06 376.25,-937.64 382.32,-928.95 375.58,-927.06"/>
</g>
<!-- ods -->
<g id="node11" class="node">
<title>ods</title>
<ellipse fill="cyan" stroke="cyan" cx="258.58" cy="-904.55" rx="42.35" ry="22.76"/>
<text text-anchor="middle" x="258.58" y="-898.95" font-family="Indie Flower" font-size="22.00">ODS</text>
</g>
<!-- csf&#45;&gt;ods -->
<g id="edge13" class="edge">
<title>csf&#45;&gt;ods</title>
<path fill="none" stroke="blue" d="M463.73,-590.35C402.62,-677.38 311.79,-813.17 274.9,-873.69"/>
<polygon fill="blue" stroke="blue" points="271.81,-872.02 269.65,-882.39 277.81,-875.63 271.81,-872.02"/>
</g>
<!-- fods -->
<g id="node12" class="node">
<title>fods</title>
<ellipse fill="cyan" stroke="cyan" cx="182.28" cy="-840.45" rx="50.41" ry="22.76"/>
<text text-anchor="middle" x="182.28" y="-834.85" font-family="Indie Flower" font-size="22.00">FODS</text>
</g>
<!-- csf&#45;&gt;fods -->
<g id="edge15" class="edge">
<title>csf&#45;&gt;fods</title>
<path fill="none" stroke="blue" d="M448.58,-576.09C371.6,-647.51 256.35,-759.37 206.55,-811.72"/>
<polygon fill="blue" stroke="blue" points="204,-809.32 199.69,-819 209.1,-814.12 204,-809.32"/>
</g>
<!-- html -->
<g id="node14" class="node">
<title>html</title>
<ellipse fill="cyan" stroke="cyan" cx="118.85" cy="-758.21" rx="46.84" ry="39.7"/>
<text text-anchor="middle" x="118.85" y="-764.61" font-family="Indie Flower" font-size="22.00">HTML</text>
<text text-anchor="middle" x="118.85" y="-740.61" font-family="Indie Flower" font-size="22.00">Table</text>
</g>
<!-- csf&#45;&gt;html -->
<g id="edge51" class="edge">
<title>csf&#45;&gt;html</title>
<path fill="none" stroke="#458b74" d="M436.33,-558.2C352,-607.43 227.75,-683.58 162.5,-726.37"/>
<polygon fill="#458b74" stroke="#458b74" points="160.5,-723.5 154.08,-731.93 164.35,-729.34 160.5,-723.5"/>
</g>
<!-- csv -->
<g id="node15" class="node">
<title>csv</title>
<ellipse fill="cyan" stroke="cyan" cx="79.84" cy="-678.11" rx="35.21" ry="22.76"/>
<text text-anchor="middle" x="79.84" y="-672.51" font-family="Indie Flower" font-size="22.00">CSV</text>
</g>
<!-- csf&#45;&gt;csv -->
<g id="edge45" class="edge">
<title>csf&#45;&gt;csv</title>
<path fill="none" stroke="#458b74" d="M429.15,-541.04C331.87,-575.47 185.16,-631.09 117.03,-659.87"/>
<polygon fill="#458b74" stroke="#458b74" points="115.39,-656.77 107.57,-663.91 118.14,-663.2 115.39,-656.77"/>
</g>
<!-- txt -->
<g id="node16" class="node">
<title>txt</title>
<ellipse fill="cyan" stroke="cyan" cx="55.15" cy="-583.75" rx="55.31" ry="39.7"/>
<text text-anchor="middle" x="55.15" y="-590.15" font-family="Indie Flower" font-size="22.00">TXT</text>
<text text-anchor="middle" x="55.15" y="-566.15" font-family="Indie Flower" font-size="22.00">UTF&#45;16</text>
</g>
<!-- csf&#45;&gt;txt -->
<g id="edge47" class="edge">
<title>csf&#45;&gt;txt</title>
<path fill="none" stroke="#458b74" d="M425.12,-521.09C332.47,-533.58 196.55,-554.79 117.84,-569.24"/>
<polygon fill="#458b74" stroke="#458b74" points="116.78,-565.88 107.59,-571.15 118.06,-572.76 116.78,-565.88"/>
</g>
<!-- dbf -->
<g id="node17" class="node">
<title>dbf</title>
<ellipse fill="cyan" stroke="cyan" cx="50.78" cy="-478.57" rx="43.27" ry="22.76"/>
<text text-anchor="middle" x="50.78" y="-472.97" font-family="Indie Flower" font-size="22.00">DBF</text>
</g>
<!-- csf&#45;&gt;dbf -->
<g id="edge49" class="edge">
<title>csf&#45;&gt;dbf</title>
<path fill="none" stroke="#458b74" d="M425.45,-499.11C327.93,-490.46 182.02,-480.65 104.19,-477.83"/>
<polygon fill="#458b74" stroke="#458b74" points="104.24,-474.33 94.12,-477.5 104,-481.33 104.24,-474.33"/>
</g>
<!-- dif -->
<g id="node18" class="node">
<title>dif</title>
<ellipse fill="cyan" stroke="cyan" cx="64.07" cy="-395.46" rx="33.88" ry="22.76"/>
<text text-anchor="middle" x="64.07" y="-389.86" font-family="Indie Flower" font-size="22.00">DIF</text>
</g>
<!-- csf&#45;&gt;dif -->
<g id="edge32" class="edge">
<title>csf&#45;&gt;dif</title>
<path fill="none" stroke="#458b74" d="M429.2,-481.95C330.69,-455.07 180.59,-417.66 107.33,-402.16"/>
<polygon fill="#458b74" stroke="#458b74" points="108.02,-398.73 97.52,-400.12 106.6,-405.58 108.02,-398.73"/>
</g>
<!-- slk -->
<g id="node19" class="node">
<title>slk</title>
<ellipse fill="cyan" stroke="cyan" cx="90.7" cy="-318.6" rx="40.11" ry="22.76"/>
<text text-anchor="middle" x="90.7" y="-313" font-family="Indie Flower" font-size="22.00">SYLK</text>
</g>
<!-- csf&#45;&gt;slk -->
<g id="edge30" class="edge">
<title>csf&#45;&gt;slk</title>
<path fill="none" stroke="#458b74" d="M435.66,-466.25C344.49,-423.52 205.65,-362.13 135.13,-333.78"/>
<polygon fill="#458b74" stroke="#458b74" points="136.23,-330.45 125.64,-330 133.64,-336.95 136.23,-330.45"/>
</g>
<!-- prn -->
<g id="node20" class="node">
<title>prn</title>
<ellipse fill="cyan" stroke="cyan" cx="133.25" cy="-242.74" rx="39.7" ry="22.76"/>
<text text-anchor="middle" x="133.25" y="-237.14" font-family="Indie Flower" font-size="22.00">PRN</text>
</g>
<!-- csf&#45;&gt;prn -->
<g id="edge43" class="edge">
<title>csf&#45;&gt;prn</title>
<path fill="none" stroke="#458b74" d="M445.43,-450.94C362.4,-391.42 234.63,-304.03 171.38,-264.02"/>
<polygon fill="#458b74" stroke="#458b74" points="172.86,-260.81 162.53,-258.47 169.14,-266.74 172.86,-260.81"/>
</g>
<!-- rtf -->
<g id="node21" class="node">
<title>rtf</title>
<ellipse fill="cyan" stroke="cyan" cx="186.96" cy="-177.94" rx="37.45" ry="22.76"/>
<text text-anchor="middle" x="186.96" y="-172.34" font-family="Indie Flower" font-size="22.00">RTF</text>
</g>
<!-- csf&#45;&gt;rtf -->
<g id="edge41" class="edge">
<title>csf&#45;&gt;rtf</title>
<path fill="none" stroke="#458b74" d="M457.39,-438.07C384.75,-363.31 271.41,-251.77 217.44,-202.62"/>
<polygon fill="#458b74" stroke="#458b74" points="219.68,-199.94 209.92,-195.84 214.99,-205.13 219.68,-199.94"/>
</g>
<!-- wk1 -->
<g id="node22" class="node">
<title>wk1</title>
<ellipse fill="cyan" stroke="cyan" cx="247.81" cy="-126.11" rx="35.21" ry="22.76"/>
<text text-anchor="middle" x="247.81" y="-120.51" font-family="Indie Flower" font-size="22.00">WK1</text>
</g>
<!-- csf&#45;&gt;wk1 -->
<g id="edge34" class="edge">
<title>csf&#45;&gt;wk1</title>
<path fill="none" stroke="#458b74" d="M470.68,-427.98C411.03,-341.2 316.74,-210.42 272.33,-153.8"/>
<polygon fill="#458b74" stroke="#458b74" points="274.86,-151.35 265.9,-145.69 269.37,-155.7 274.86,-151.35"/>
</g>
<!-- wk3 -->
<g id="node24" class="node">
<title>wk3</title>
<ellipse fill="cyan" stroke="cyan" cx="316.52" cy="-85.24" rx="37.45" ry="22.76"/>
<text text-anchor="middle" x="316.52" y="-79.64" font-family="Indie Flower" font-size="22.00">WK3</text>
</g>
<!-- csf&#45;&gt;wk3 -->
<g id="edge18" class="edge">
<title>csf&#45;&gt;wk3</title>
<path fill="none" stroke="blue" d="M485.49,-420.28C440.94,-324 369.25,-177.81 335.28,-115.28"/>
<polygon fill="blue" stroke="blue" points="338.25,-113.41 330.36,-106.34 332.11,-116.78 338.25,-113.41"/>
</g>
<!-- eth -->
<g id="node32" class="node">
<title>eth</title>
<ellipse fill="cyan" stroke="cyan" cx="392.47" cy="-56.11" rx="36.54" ry="22.76"/>
<text text-anchor="middle" x="392.47" y="-50.51" font-family="Indie Flower" font-size="22.00">ETH</text>
</g>
<!-- csf&#45;&gt;eth -->
<g id="edge52" class="edge">
<title>csf&#45;&gt;eth</title>
<path fill="none" stroke="#458b74" d="M501.66,-415.11C474.1,-312.13 428.15,-154.8 405.49,-87.94"/>
<polygon fill="#458b74" stroke="#458b74" points="408.76,-86.69 402.19,-78.38 402.14,-88.97 408.76,-86.69"/>
</g>
<!-- xls2&#45;&gt;csf -->
<g id="edge24" class="edge">
<title>xls2&#45;&gt;csf</title>
<path fill="none" stroke="#458b74" d="M947.31,-507.23C872.79,-504.62 731.21,-504.14 632.3,-505.8"/>
<polygon fill="#458b74" stroke="#458b74" points="632.21,-502.31 622.27,-505.98 632.33,-509.3 632.21,-502.31"/>
</g>
<!-- xls3&#45;&gt;csf -->
<g id="edge26" class="edge">
<title>xls3&#45;&gt;csf</title>
<path fill="none" stroke="#458b74" d="M940.26,-602.16C869.05,-583.17 729.27,-550.8 631.33,-530.2"/>
<polygon fill="#458b74" stroke="#458b74" points="631.89,-526.74 621.39,-528.12 630.46,-533.59 631.89,-526.74"/>
</g>
<!-- xls4&#45;&gt;csf -->
<g id="edge28" class="edge">
<title>xls4&#45;&gt;csf</title>
<path fill="none" stroke="#458b74" d="M912.45,-691.74C847.68,-657.9 716.49,-594.96 624.46,-553.11"/>
<polygon fill="#458b74" stroke="#458b74" points="625.68,-549.82 615.13,-548.88 622.79,-556.19 625.68,-549.82"/>
</g>
<!-- xls5&#45;&gt;csf -->
<g id="edge8" class="edge">
<title>xls5&#45;&gt;csf</title>
<path fill="none" stroke="blue" d="M863.35,-774.19C807.96,-726.96 693.45,-635.97 612.71,-574.48"/>
<polygon fill="blue" stroke="blue" points="614.59,-571.51 604.52,-568.25 610.36,-577.09 614.59,-571.51"/>
</g>
<!-- xls8&#45;&gt;csf -->
<g id="edge10" class="edge">
<title>xls8&#45;&gt;csf</title>
<path fill="none" stroke="blue" d="M798.28,-845.47C755.53,-787.92 662.57,-671.8 596.63,-592.85"/>
<polygon fill="blue" stroke="blue" points="599.04,-590.27 589.93,-584.85 593.67,-594.76 599.04,-590.27"/>
</g>
<!-- xlml&#45;&gt;csf -->
<g id="edge6" class="edge">
<title>xlml&#45;&gt;csf</title>
<path fill="none" stroke="blue" d="M707.67,-903.71C680.6,-837.59 618.76,-701.21 574.17,-608.06"/>
<polygon fill="blue" stroke="blue" points="577.26,-606.4 569.77,-598.9 570.95,-609.43 577.26,-606.4"/>
</g>
<!-- xlsx&#45;&gt;csf -->
<g id="edge2" class="edge">
<title>xlsx&#45;&gt;csf</title>
<path fill="none" stroke="blue" d="M609.18,-937.47C598.77,-867.34 571.02,-719.19 549.78,-617.52"/>
<polygon fill="blue" stroke="blue" points="553.16,-616.59 547.68,-607.52 546.31,-618.03 553.16,-616.59"/>
</g>
<!-- xlsb&#45;&gt;csf -->
<g id="edge4" class="edge">
<title>xlsb&#45;&gt;csf</title>
<path fill="none" stroke="blue" d="M513.06,-945.86C518.39,-875.15 524.03,-724.54 525.75,-620.69"/>
<polygon fill="blue" stroke="blue" points="529.26,-620.53 525.91,-610.47 522.26,-620.42 529.26,-620.53"/>
</g>
<!-- nums&#45;&gt;csf -->
<g id="edge22" class="edge">
<title>nums&#45;&gt;csf</title>
<path fill="none" stroke="blue" d="M382.8,-938.12C406.12,-880.29 460.03,-723.53 494.07,-617.04"/>
<polygon fill="blue" stroke="blue" points="497.49,-617.81 497.19,-607.22 490.82,-615.68 497.49,-617.81"/>
</g>
<!-- ods&#45;&gt;csf -->
<g id="edge12" class="edge">
<title>ods&#45;&gt;csf</title>
<path fill="none" stroke="blue" d="M276.57,-883.88C315.28,-832.69 407.35,-697.62 467.54,-605.05"/>
<polygon fill="blue" stroke="blue" points="470.58,-606.81 473.09,-596.51 464.71,-603 470.58,-606.81"/>
</g>
<!-- fods&#45;&gt;csf -->
<g id="edge14" class="edge">
<title>fods&#45;&gt;csf</title>
<path fill="none" stroke="blue" d="M207.98,-820.71C258.64,-776.41 372.85,-667.38 449.09,-591.41"/>
<polygon fill="blue" stroke="blue" points="451.75,-593.71 456.35,-584.17 446.8,-588.76 451.75,-593.71"/>
</g>
<!-- uos -->
<g id="node13" class="node">
<title>uos</title>
<ellipse fill="cyan" stroke="cyan" cx="474.39" cy="-40.17" rx="39.7" ry="22.76"/>
<text text-anchor="middle" x="474.39" y="-34.57" font-family="Indie Flower" font-size="22.00">UOS</text>
</g>
<!-- uos&#45;&gt;csf -->
<g id="edge16" class="edge">
<title>uos&#45;&gt;csf</title>
<path fill="none" stroke="blue" d="M476.76,-62.91C483.06,-123.25 500.52,-290.5 512.26,-402.87"/>
<polygon fill="blue" stroke="blue" points="508.78,-403.3 513.3,-412.89 515.74,-402.58 508.78,-403.3"/>
</g>
<!-- html&#45;&gt;csf -->
<g id="edge50" class="edge">
<title>html&#45;&gt;csf</title>
<path fill="none" stroke="#458b74" d="M159.46,-738.34C223.1,-702.82 347.81,-627.46 433.41,-573.32"/>
<polygon fill="#458b74" stroke="#458b74" points="435.51,-576.13 442.09,-567.82 431.77,-570.22 435.51,-576.13"/>
</g>
<!-- csv&#45;&gt;csf -->
<g id="edge44" class="edge">
<title>csv&#45;&gt;csf</title>
<path fill="none" stroke="#458b74" d="M112.7,-669.72C177.5,-648.8 324.08,-594.55 423.47,-555.34"/>
<polygon fill="#458b74" stroke="#458b74" points="424.92,-558.53 432.93,-551.6 422.35,-552.02 424.92,-558.53"/>
</g>
<!-- txt&#45;&gt;csf -->
<g id="edge46" class="edge">
<title>txt&#45;&gt;csf</title>
<path fill="none" stroke="#458b74" d="M110.5,-579.8C185.7,-570.71 321.69,-550.18 417.04,-533.85"/>
<polygon fill="#458b74" stroke="#458b74" points="417.75,-537.28 427.01,-532.13 416.56,-530.38 417.75,-537.28"/>
</g>
<!-- dbf&#45;&gt;csf -->
<g id="edge48" class="edge">
<title>dbf&#45;&gt;csf</title>
<path fill="none" stroke="#458b74" d="M92.04,-485.49C163.38,-493.37 311.94,-504.33 414.68,-509.78"/>
<polygon fill="#458b74" stroke="#458b74" points="414.62,-513.28 424.79,-510.3 414.98,-506.29 414.62,-513.28"/>
</g>
<!-- dif&#45;&gt;csf -->
<g id="edge39" class="edge">
<title>dif&#45;&gt;csf</title>
<path fill="none" stroke="#458b74" d="M93.7,-406.64C157.66,-426.19 311.34,-465.78 416.51,-490.49"/>
<polygon fill="#458b74" stroke="#458b74" points="416,-493.96 426.53,-492.83 417.59,-487.15 416,-493.96"/>
</g>
<!-- slk&#45;&gt;csf -->
<g id="edge31" class="edge">
<title>slk&#45;&gt;csf</title>
<path fill="none" stroke="#458b74" d="M118.64,-335.01C178.71,-365.35 322.62,-430.3 421.65,-472.47"/>
<polygon fill="#458b74" stroke="#458b74" points="420.52,-475.79 431.09,-476.48 423.26,-469.35 420.52,-475.79"/>
</g>
<!-- prn&#45;&gt;csf -->
<g id="edge42" class="edge">
<title>prn&#45;&gt;csf</title>
<path fill="none" stroke="#458b74" d="M154.84,-261.78C206.46,-301.46 339.28,-393.89 430.59,-454.55"/>
<polygon fill="#458b74" stroke="#458b74" points="428.75,-457.53 439.02,-460.13 432.62,-451.69 428.75,-457.53"/>
</g>
<!-- rtf&#45;&gt;csf -->
<g id="edge40" class="edge">
<title>rtf&#45;&gt;csf</title>
<path fill="none" stroke="#458b74" d="M202.98,-198.44C245.23,-245.28 361.45,-361.64 441.72,-438.59"/>
<polygon fill="#458b74" stroke="#458b74" points="439.73,-441.53 449.37,-445.91 444.57,-436.47 439.73,-441.53"/>
</g>
<!-- wk1&#45;&gt;csf -->
<g id="edge33" class="edge">
<title>wk1&#45;&gt;csf</title>
<path fill="none" stroke="#458b74" d="M259.28,-147.61C292.3,-199.97 388.7,-336.2 455.51,-426.34"/>
<polygon fill="#458b74" stroke="#458b74" points="452.7,-428.43 461.47,-434.37 458.32,-424.26 452.7,-428.43"/>
</g>
<!-- wksl -->
<g id="node23" class="node">
<title>wksl</title>
<ellipse fill="cyan" stroke="cyan" cx="567" cy="-39.6" rx="45.92" ry="39.7"/>
<text text-anchor="middle" x="567" y="-46" font-family="Indie Flower" font-size="22.00">WKS</text>
<text text-anchor="middle" x="567" y="-22" font-family="Indie Flower" font-size="22.00">Lotus</text>
</g>
<!-- wksl&#45;&gt;csf -->
<g id="edge37" class="edge">
<title>wksl&#45;&gt;csf</title>
<path fill="none" stroke="#458b74" d="M563.34,-79.43C556.84,-150.09 543.09,-299.61 533.6,-402.83"/>
<polygon fill="#458b74" stroke="#458b74" points="530.1,-402.7 532.67,-412.98 537.07,-403.34 530.1,-402.7"/>
</g>
<!-- wk3&#45;&gt;csf -->
<g id="edge17" class="edge">
<title>wk3&#45;&gt;csf</title>
<path fill="none" stroke="blue" d="M323.83,-107.46C347.18,-163.91 419.76,-315.36 470.73,-415.98"/>
<polygon fill="blue" stroke="blue" points="467.64,-417.62 475.29,-424.95 473.88,-414.45 467.64,-417.62"/>
</g>
<!-- wk4 -->
<g id="node25" class="node">
<title>wk4</title>
<ellipse fill="cyan" stroke="cyan" cx="655.24" cy="-56.25" rx="36.54" ry="22.76"/>
<text text-anchor="middle" x="655.24" y="-50.65" font-family="Indie Flower" font-size="22.00">WK4</text>
</g>
<!-- wk4&#45;&gt;csf -->
<g id="edge19" class="edge">
<title>wk4&#45;&gt;csf</title>
<path fill="none" stroke="blue" d="M648.71,-78.83C631.69,-137.71 585.11,-298.83 553.84,-406.99"/>
<polygon fill="blue" stroke="blue" points="550.47,-406.05 551.06,-416.63 557.2,-408 550.47,-406.05"/>
</g>
<!-- 123 -->
<g id="node26" class="node">
<title>123</title>
<ellipse fill="cyan" stroke="cyan" cx="725.42" cy="-82.72" rx="31.23" ry="22.76"/>
<text text-anchor="middle" x="725.42" y="-77.12" font-family="Indie Flower" font-size="22.00">123</text>
</g>
<!-- 123&#45;&gt;csf -->
<g id="edge20" class="edge">
<title>123&#45;&gt;csf</title>
<path fill="none" stroke="blue" d="M715.27,-104.28C689.09,-159.93 617.94,-311.12 570.09,-412.81"/>
<polygon fill="blue" stroke="blue" points="566.91,-411.34 565.82,-421.88 573.25,-414.32 566.91,-411.34"/>
</g>
<!-- wksm -->
<g id="node27" class="node">
<title>wksm</title>
<ellipse fill="cyan" stroke="cyan" cx="801.54" cy="-127.65" rx="50.41" ry="39.7"/>
<text text-anchor="middle" x="801.54" y="-134.05" font-family="Indie Flower" font-size="22.00">WKS</text>
<text text-anchor="middle" x="801.54" y="-110.05" font-family="Indie Flower" font-size="22.00">Works</text>
</g>
<!-- wksm&#45;&gt;csf -->
<g id="edge38" class="edge">
<title>wksm&#45;&gt;csf</title>
<path fill="none" stroke="#458b74" d="M776.63,-162.06C734.46,-220.3 647.76,-340.08 587.68,-423.07"/>
<polygon fill="#458b74" stroke="#458b74" points="584.8,-421.08 581.77,-431.23 590.47,-425.19 584.8,-421.08"/>
</g>
<!-- xlr -->
<g id="node28" class="node">
<title>xlr</title>
<ellipse fill="cyan" stroke="cyan" cx="870.41" cy="-188.5" rx="34.8" ry="22.76"/>
<text text-anchor="middle" x="870.41" y="-182.9" font-family="Indie Flower" font-size="22.00">XLR</text>
</g>
<!-- xlr&#45;&gt;csf -->
<g id="edge35" class="edge">
<title>xlr&#45;&gt;csf</title>
<path fill="none" stroke="#458b74" d="M850.52,-207.03C803.74,-250.61 684.62,-361.59 603.85,-436.83"/>
<polygon fill="#458b74" stroke="#458b74" points="601.08,-434.62 596.15,-444 605.86,-439.74 601.08,-434.62"/>
</g>
<!-- wq1 -->
<g id="node29" class="node">
<title>wq1</title>
<ellipse fill="cyan" stroke="cyan" cx="919.38" cy="-250.79" rx="37.45" ry="22.76"/>
<text text-anchor="middle" x="919.38" y="-245.19" font-family="Indie Flower" font-size="22.00">WQ1</text>
</g>
<!-- wq1&#45;&gt;csf -->
<g id="edge36" class="edge">
<title>wq1&#45;&gt;csf</title>
<path fill="none" stroke="#458b74" d="M894.02,-267.5C838.76,-303.91 705.19,-391.93 614.49,-451.7"/>
<polygon fill="#458b74" stroke="#458b74" points="612.55,-448.78 606.13,-457.21 616.4,-454.63 612.55,-448.78"/>
</g>
<!-- wq2 -->
<g id="node30" class="node">
<title>wq2</title>
<ellipse fill="cyan" stroke="cyan" cx="959.82" cy="-326.2" rx="41.02" ry="39.7"/>
<text text-anchor="middle" x="959.82" y="-332.6" font-family="Indie Flower" font-size="22.00">WQ2</text>
<text text-anchor="middle" x="959.82" y="-308.6" font-family="Indie Flower" font-size="22.00">WB*</text>
</g>
<!-- wq2&#45;&gt;csf -->
<g id="edge11" class="edge">
<title>wq2&#45;&gt;csf</title>
<path fill="none" stroke="blue" d="M922.26,-342.17C856.65,-370.05 719.17,-428.48 624.14,-468.86"/>
<polygon fill="blue" stroke="blue" points="622.63,-465.7 614.79,-472.83 625.37,-472.14 622.63,-465.7"/>
</g>
<!-- qpw -->
<g id="node31" class="node">
<title>qpw</title>
<ellipse fill="cyan" stroke="cyan" cx="987.11" cy="-412.49" rx="42.35" ry="22.76"/>
<text text-anchor="middle" x="987.11" y="-406.89" font-family="Indie Flower" font-size="22.00">QPW</text>
</g>
<!-- qpw&#45;&gt;csf -->
<g id="edge21" class="edge">
<title>qpw&#45;&gt;csf</title>
<path fill="none" stroke="blue" d="M947.59,-420.94C877.99,-435.82 731.36,-467.17 630.19,-488.8"/>
<polygon fill="blue" stroke="blue" points="629.29,-485.41 620.24,-490.93 630.75,-492.26 629.29,-485.41"/>
</g>
<!-- eth&#45;&gt;csf -->
<g id="edge53" class="edge">
<title>eth&#45;&gt;csf</title>
<path fill="none" stroke="#458b74" d="M395.8,-78.94C409.08,-138.35 454.86,-300.58 487.94,-408.62"/>
<polygon fill="#458b74" stroke="#458b74" points="484.62,-409.72 490.9,-418.25 491.31,-407.67 484.62,-409.72"/>
</g>
</g>
</svg>
