<?xml version="1.0" encoding="UTF-8" standalone="no"?>
<!DOCTYPE svg PUBLIC "-//W3C//DTD SVG 1.1//EN"
 "http://www.w3.org/Graphics/SVG/1.1/DTD/svg11.dtd">
<!-- Generated by graphviz version 2.50.0 (20211204.2007)
 -->
<!-- Title: G Pages: 1 -->
<svg width="313pt" height="358pt"
 viewBox="0.00 0.00 313.00 357.79" xmlns="http://www.w3.org/2000/svg" xmlns:xlink="http://www.w3.org/1999/xlink">
<g id="graph0" class="graph" transform="scale(1 1) rotate(0) translate(4 353.79)">
<title>G</title>
<polygon fill="white" stroke="transparent" points="-4,4 -4,-353.79 309,-353.79 309,4 -4,4"/>
<g id="clust1" class="cluster">
<title>cluster_0</title>
<polygon fill="transparent" stroke="transparent" points="19,-253.19 19,-341.79 286,-341.79 286,-253.19 19,-253.19"/>
<text text-anchor="middle" x="152.5" y="-326.59" font-family="Indie Flower" font-size="14.00">Supported Format Types</text>
</g>
<g id="clust3" class="cluster">
<title>cluster_1</title>
<polygon fill="transparent" stroke="transparent" points="8,-130.6 8,-234.19 297,-234.19 297,-130.6 8,-130.6"/>
<text text-anchor="middle" x="152.5" y="-218.99" font-family="Indie Flower" font-size="14.00">Workbook Format Conversions</text>
<text text-anchor="middle" x="152.5" y="-203.99" font-family="Indie Flower" font-size="14.00">(blue arrow)</text>
</g>
<g id="clust5" class="cluster">
<title>cluster_2</title>
<polygon fill="transparent" stroke="transparent" points="8,-8 8,-111.6 289,-111.6 289,-8 8,-8"/>
<text text-anchor="middle" x="148.5" y="-96.4" font-family="Indie Flower" font-size="14.00">Single&#45;Worksheet Format Conversions</text>
<text text-anchor="middle" x="148.5" y="-81.4" font-family="Indie Flower" font-size="14.00">(green arrow)</text>
</g>
<!-- XL -->
<g id="node1" class="node">
<title>XL</title>
<ellipse fill="#00ff00" stroke="#00ff00" cx="59" cy="-285.99" rx="32.49" ry="18"/>
<text text-anchor="middle" x="59" y="-282.29" font-family="Indie Flower" font-size="14.00">Excel</text>
</g>
<!-- CSF -->
<g id="node2" class="node">
<title>CSF</title>
<ellipse fill="none" stroke="black" cx="152" cy="-285.99" rx="20.63" ry="20.63"/>
<ellipse fill="none" stroke="black" cx="152" cy="-285.99" rx="24.6" ry="24.6"/>
<text text-anchor="middle" x="152" y="-282.29" font-family="Indie Flower" font-size="14.00">JS</text>
</g>
<!-- XL&#45;&gt;CSF -->
<!-- x1i -->
<g id="node4" class="node">
<title>x1i</title>
<ellipse fill="none" stroke="black" cx="49" cy="-163.39" rx="33.29" ry="18"/>
<text text-anchor="middle" x="49" y="-159.69" font-family="Indie Flower" font-size="14.00">XLSX</text>
</g>
<!-- XL&#45;&gt;x1i -->
<!-- OLD -->
<g id="node3" class="node">
<title>OLD</title>
<ellipse fill="cyan" stroke="cyan" cx="245" cy="-285.99" rx="33.29" ry="18"/>
<text text-anchor="middle" x="245" y="-282.29" font-family="Indie Flower" font-size="14.00">Other</text>
</g>
<!-- CSF&#45;&gt;OLD -->
<!-- c1 -->
<g id="node5" class="node">
<title>c1</title>
<ellipse fill="none" stroke="black" cx="152" cy="-163.39" rx="20.63" ry="20.63"/>
<ellipse fill="none" stroke="black" cx="152" cy="-163.39" rx="24.6" ry="24.6"/>
<text text-anchor="middle" x="152" y="-159.69" font-family="Indie Flower" font-size="14.00">JS</text>
</g>
<!-- CSF&#45;&gt;c1 -->
<!-- x1o -->
<g id="node6" class="node">
<title>x1o</title>
<ellipse fill="none" stroke="black" cx="256" cy="-163.39" rx="33.29" ry="18"/>
<text text-anchor="middle" x="256" y="-159.69" font-family="Indie Flower" font-size="14.00">XLSB</text>
</g>
<!-- OLD&#45;&gt;x1o -->
<!-- x1i&#45;&gt;c1 -->
<g id="edge3" class="edge">
<title>x1i&#45;&gt;c1</title>
<path fill="none" stroke="blue" d="M82.16,-163.39C93.21,-163.39 105.56,-163.39 116.76,-163.39"/>
<polygon fill="blue" stroke="blue" points="117.07,-166.89 127.07,-163.39 117.07,-159.89 117.07,-166.89"/>
<text text-anchor="middle" x="104.67" y="-170.19" font-family="Indie Flower" font-size="14.00">read</text>
</g>
<!-- x2i -->
<g id="node7" class="node">
<title>x2i</title>
<ellipse fill="none" stroke="black" cx="49" cy="-40.8" rx="33.29" ry="18"/>
<text text-anchor="middle" x="49" y="-37.1" font-family="Indie Flower" font-size="14.00">SYLK</text>
</g>
<!-- x1i&#45;&gt;x2i -->
<!-- c1&#45;&gt;x1o -->
<g id="edge4" class="edge">
<title>c1&#45;&gt;x1o</title>
<path fill="none" stroke="blue" d="M176.91,-163.39C187.61,-163.39 200.44,-163.39 212.62,-163.39"/>
<polygon fill="blue" stroke="blue" points="212.64,-166.89 222.64,-163.39 212.64,-159.89 212.64,-166.89"/>
<text text-anchor="middle" x="199.83" y="-170.19" font-family="Indie Flower" font-size="14.00">write</text>
</g>
<!-- c2 -->
<g id="node8" class="node">
<title>c2</title>
<ellipse fill="none" stroke="black" cx="152" cy="-40.8" rx="20.63" ry="20.63"/>
<ellipse fill="none" stroke="black" cx="152" cy="-40.8" rx="24.6" ry="24.6"/>
<text text-anchor="middle" x="152" y="-37.1" font-family="Indie Flower" font-size="14.00">JS</text>
</g>
<!-- c1&#45;&gt;c2 -->
<!-- x2o -->
<g id="node9" class="node">
<title>x2o</title>
<ellipse fill="none" stroke="black" cx="252" cy="-40.8" rx="28.7" ry="18"/>
<text text-anchor="middle" x="252" y="-37.1" font-family="Indie Flower" font-size="14.00">CSV</text>
</g>
<!-- x1o&#45;&gt;x2o -->
<!-- x2i&#45;&gt;c2 -->
<g id="edge5" class="edge">
<title>x2i&#45;&gt;c2</title>
<path fill="none" stroke="#458b74" d="M82.16,-40.8C93.21,-40.8 105.56,-40.8 116.76,-40.8"/>
<polygon fill="#458b74" stroke="#458b74" points="117.07,-44.3 127.07,-40.8 117.07,-37.3 117.07,-44.3"/>
<text text-anchor="middle" x="104.67" y="-47.6" font-family="Indie Flower" font-size="14.00">read</text>
</g>
<!-- c2&#45;&gt;x2o -->
<g id="edge6" class="edge">
<title>c2&#45;&gt;x2o</title>
<path fill="none" stroke="#458b74" d="M176.98,-40.8C187.8,-40.8 200.74,-40.8 212.8,-40.8"/>
<polygon fill="#458b74" stroke="#458b74" points="213.09,-44.3 223.09,-40.8 213.09,-37.3 213.09,-44.3"/>
<text text-anchor="middle" x="200.1" y="-47.6" font-family="Indie Flower" font-size="14.00">write</text>
</g>
</g>
</svg>
