<?xml version="1.0" encoding="UTF-8" standalone="no"?>
<!DOCTYPE svg PUBLIC "-//W3C//DTD SVG 1.1//EN"
 "http://www.w3.org/Graphics/SVG/1.1/DTD/svg11.dtd">
<!-- Generated by graphviz version 3.0.0 (20220226.1711)
 -->
<!-- Title: G Pages: 1 -->
<svg width="836pt" height="816pt"
 viewBox="0.00 0.00 835.92 815.55" xmlns="http://www.w3.org/2000/svg" xmlns:xlink="http://www.w3.org/1999/xlink">
<g id="graph0" class="graph" transform="scale(1 1) rotate(0) translate(4 811.55)">
<title>G</title>
<polygon fill="white" stroke="transparent" points="-4,4 -4,-811.55 831.92,-811.55 831.92,4 -4,4"/>
<!-- csf -->
<g id="node1" class="node">
<title>csf</title>
<ellipse fill="none" stroke="black" cx="413.33" cy="-403.68" rx="65.54" ry="65.54"/>
<ellipse fill="none" stroke="black" cx="413.33" cy="-403.68" rx="69.52" ry="69.52"/>
<text text-anchor="middle" x="413.33" y="-422.48" font-family="Indie Flower" font-size="14.00">Common</text>
<text text-anchor="middle" x="413.33" y="-407.48" font-family="Indie Flower" font-size="14.00">Spreadsheet</text>
<text text-anchor="middle" x="413.33" y="-392.48" font-family="Indie Flower" font-size="14.00">Format</text>
<text text-anchor="middle" x="413.33" y="-377.48" font-family="Indie Flower" font-size="14.00">(JS Object)</text>
</g>
<!-- xls2 -->
<g id="node2" class="node">
<title>xls2</title>
<ellipse fill="#00ff00" stroke="#00ff00" cx="790.45" cy="-403.68" rx="37.45" ry="26.74"/>
<text text-anchor="middle" x="790.45" y="-407.48" font-family="Indie Flower" font-size="14.00">XLS</text>
<text text-anchor="middle" x="790.45" y="-392.48" font-family="Indie Flower" font-size="14.00">BIFF2</text>
</g>
<!-- csf&#45;&gt;xls2 -->
<g id="edge25" class="edge">
<title>csf&#45;&gt;xls2</title>
<path fill="none" stroke="#458b74" d="M482.94,-409.06C558.69,-411.11 677.75,-410.86 743.28,-408.33"/>
<polygon fill="#458b74" stroke="#458b74" points="743.48,-411.83 753.32,-407.91 743.18,-404.83 743.48,-411.83"/>
</g>
<!-- xls3 -->
<g id="node3" class="node">
<title>xls3</title>
<ellipse fill="#00ff00" stroke="#00ff00" cx="781.53" cy="-485.19" rx="37.45" ry="26.74"/>
<text text-anchor="middle" x="781.53" y="-488.99" font-family="Indie Flower" font-size="14.00">XLS</text>
<text text-anchor="middle" x="781.53" y="-473.99" font-family="Indie Flower" font-size="14.00">BIFF3</text>
</g>
<!-- csf&#45;&gt;xls3 -->
<g id="edge27" class="edge">
<title>csf&#45;&gt;xls3</title>
<path fill="none" stroke="#458b74" d="M480.13,-423.98C553.65,-442.35 669.94,-467.84 734.47,-479.53"/>
<polygon fill="#458b74" stroke="#458b74" points="733.91,-482.99 744.37,-481.29 735.14,-476.1 733.91,-482.99"/>
</g>
<!-- xls4 -->
<g id="node4" class="node">
<title>xls4</title>
<ellipse fill="#00ff00" stroke="#00ff00" cx="755.21" cy="-562.84" rx="37.45" ry="26.74"/>
<text text-anchor="middle" x="755.21" y="-566.64" font-family="Indie Flower" font-size="14.00">XLS</text>
<text text-anchor="middle" x="755.21" y="-551.64" font-family="Indie Flower" font-size="14.00">BIFF4</text>
</g>
<!-- csf&#45;&gt;xls4 -->
<g id="edge29" class="edge">
<title>csf&#45;&gt;xls4</title>
<path fill="none" stroke="#458b74" d="M474.16,-437.93C542.38,-471.96 651.29,-522.38 711.56,-547.6"/>
<polygon fill="#458b74" stroke="#458b74" points="710.58,-550.98 721.16,-551.57 713.25,-544.51 710.58,-550.98"/>
</g>
<!-- xls5 -->
<g id="node5" class="node">
<title>xls5</title>
<ellipse fill="#00ff00" stroke="#00ff00" cx="712.74" cy="-632.97" rx="37.45" ry="26.74"/>
<text text-anchor="middle" x="712.74" y="-636.77" font-family="Indie Flower" font-size="14.00">XLS</text>
<text text-anchor="middle" x="712.74" y="-621.77" font-family="Indie Flower" font-size="14.00">BIFF5</text>
</g>
<!-- csf&#45;&gt;xls5 -->
<g id="edge7" class="edge">
<title>csf&#45;&gt;xls5</title>
<path fill="none" stroke="blue" d="M465.32,-450.27C525.2,-498.75 622.04,-572.55 675.09,-609.83"/>
<polygon fill="blue" stroke="blue" points="673.32,-612.87 683.53,-615.71 677.32,-607.12 673.32,-612.87"/>
</g>
<!-- xls8 -->
<g id="node6" class="node">
<title>xls8</title>
<ellipse fill="#00ff00" stroke="#00ff00" cx="656.1" cy="-692.26" rx="37.45" ry="26.74"/>
<text text-anchor="middle" x="656.1" y="-696.06" font-family="Indie Flower" font-size="14.00">XLS</text>
<text text-anchor="middle" x="656.1" y="-681.06" font-family="Indie Flower" font-size="14.00">BIFF8</text>
</g>
<!-- csf&#45;&gt;xls8 -->
<g id="edge9" class="edge">
<title>csf&#45;&gt;xls8</title>
<path fill="none" stroke="blue" d="M454.03,-460.41C502.64,-521.47 582.67,-616.11 626.05,-663.39"/>
<polygon fill="blue" stroke="blue" points="623.57,-665.87 632.94,-670.83 628.71,-661.12 623.57,-665.87"/>
</g>
<!-- xlml -->
<g id="node7" class="node">
<title>xlml</title>
<ellipse fill="#00ff00" stroke="#00ff00" cx="579.16" cy="-742.38" rx="47.25" ry="26.74"/>
<text text-anchor="middle" x="579.16" y="-746.18" font-family="Indie Flower" font-size="14.00">SSML</text>
<text text-anchor="middle" x="579.16" y="-731.18" font-family="Indie Flower" font-size="14.00">(2003/4)</text>
</g>
<!-- csf&#45;&gt;xlml -->
<g id="edge5" class="edge">
<title>csf&#45;&gt;xlml</title>
<path fill="none" stroke="blue" d="M439.11,-468.56C471.78,-540.11 527.17,-652.46 557.68,-708.4"/>
<polygon fill="blue" stroke="blue" points="554.64,-710.14 562.54,-717.2 560.77,-706.76 554.64,-710.14"/>
</g>
<!-- xlsx -->
<g id="node8" class="node">
<title>xlsx</title>
<ellipse fill="#00ff00" stroke="#00ff00" cx="491.7" cy="-772.57" rx="38.37" ry="26.74"/>
<text text-anchor="middle" x="491.7" y="-776.37" font-family="Indie Flower" font-size="14.00">XLSX</text>
<text text-anchor="middle" x="491.7" y="-761.37" font-family="Indie Flower" font-size="14.00">XLSM</text>
</g>
<!-- csf&#45;&gt;xlsx -->
<g id="edge1" class="edge">
<title>csf&#45;&gt;xlsx</title>
<path fill="none" stroke="blue" d="M422.54,-472.89C436.95,-551.07 463.73,-675.33 479.65,-736.35"/>
<polygon fill="blue" stroke="blue" points="476.34,-737.52 482.3,-746.28 483.1,-735.72 476.34,-737.52"/>
</g>
<!-- xlsb -->
<g id="node9" class="node">
<title>xlsb</title>
<ellipse fill="#00ff00" stroke="#00ff00" cx="403.76" cy="-780.68" rx="43.27" ry="26.74"/>
<text text-anchor="middle" x="403.76" y="-784.48" font-family="Indie Flower" font-size="14.00">XLSB</text>
<text text-anchor="middle" x="403.76" y="-769.48" font-family="Indie Flower" font-size="14.00">BIFF12</text>
</g>
<!-- csf&#45;&gt;xlsb -->
<g id="edge3" class="edge">
<title>csf&#45;&gt;xlsb</title>
<path fill="none" stroke="blue" d="M406.19,-473.13C402,-552.92 399.14,-680.89 400.48,-743.6"/>
<polygon fill="blue" stroke="blue" points="396.99,-743.91 400.76,-753.81 403.99,-743.72 396.99,-743.91"/>
</g>
<!-- nums -->
<g id="node10" class="node">
<title>nums</title>
<ellipse fill="cyan" stroke="cyan" cx="299.96" cy="-763.36" rx="55.49" ry="18"/>
<text text-anchor="middle" x="299.96" y="-759.66" font-family="Indie Flower" font-size="14.00">NUMBERS</text>
</g>
<!-- csf&#45;&gt;nums -->
<g id="edge23" class="edge">
<title>csf&#45;&gt;nums</title>
<path fill="none" stroke="blue" d="M387.28,-468.45C359.87,-547.84 319.17,-678.77 304.78,-735.61"/>
<polygon fill="blue" stroke="blue" points="301.37,-734.79 302.4,-745.33 308.18,-736.45 301.37,-734.79"/>
</g>
<!-- ods -->
<g id="node11" class="node">
<title>ods</title>
<ellipse fill="cyan" stroke="cyan" cx="215.6" cy="-724.8" rx="30.59" ry="18"/>
<text text-anchor="middle" x="215.6" y="-721.1" font-family="Indie Flower" font-size="14.00">ODS</text>
</g>
<!-- csf&#45;&gt;ods -->
<g id="edge13" class="edge">
<title>csf&#45;&gt;ods</title>
<path fill="none" stroke="blue" d="M372.25,-460.14C326.52,-530.09 255.55,-646.35 227.44,-698.33"/>
<polygon fill="blue" stroke="blue" points="224.3,-696.79 222.7,-707.26 230.48,-700.07 224.3,-696.79"/>
</g>
<!-- fods -->
<g id="node12" class="node">
<title>fods</title>
<ellipse fill="cyan" stroke="cyan" cx="157.15" cy="-680.43" rx="36" ry="18"/>
<text text-anchor="middle" x="157.15" y="-676.73" font-family="Indie Flower" font-size="14.00">FODS</text>
</g>
<!-- csf&#45;&gt;fods -->
<g id="edge15" class="edge">
<title>csf&#45;&gt;fods</title>
<path fill="none" stroke="blue" d="M362.1,-451.11C304.39,-510.17 213.75,-608.81 175.28,-655.09"/>
<polygon fill="blue" stroke="blue" points="172.34,-653.15 168.72,-663.1 177.76,-657.58 172.34,-653.15"/>
</g>
<!-- html -->
<g id="node14" class="node">
<title>html</title>
<ellipse fill="cyan" stroke="cyan" cx="103.98" cy="-619.37" rx="38.37" ry="26.74"/>
<text text-anchor="middle" x="103.98" y="-623.17" font-family="Indie Flower" font-size="14.00">HTML</text>
<text text-anchor="middle" x="103.98" y="-608.17" font-family="Indie Flower" font-size="14.00">Table</text>
</g>
<!-- csf&#45;&gt;html -->
<g id="edge50" class="edge">
<title>csf&#45;&gt;html</title>
<path fill="none" stroke="#458b74" d="M353.15,-439.08C288.12,-481.86 186.98,-552.76 135.84,-591.74"/>
<polygon fill="#458b74" stroke="#458b74" points="133.57,-589.07 127.78,-597.94 137.84,-594.62 133.57,-589.07"/>
</g>
<!-- csv -->
<g id="node15" class="node">
<title>csv</title>
<ellipse fill="cyan" stroke="cyan" cx="67.87" cy="-554.93" rx="28.7" ry="18"/>
<text text-anchor="middle" x="67.87" y="-551.23" font-family="Indie Flower" font-size="14.00">CSV</text>
</g>
<!-- csf&#45;&gt;csv -->
<g id="edge44" class="edge">
<title>csf&#45;&gt;csv</title>
<path fill="none" stroke="#458b74" d="M347.41,-426.68C272.23,-457.2 152.63,-510.03 97.48,-537.51"/>
<polygon fill="#458b74" stroke="#458b74" points="95.61,-534.54 88.27,-542.18 98.77,-540.79 95.61,-534.54"/>
</g>
<!-- txt -->
<g id="node16" class="node">
<title>txt</title>
<ellipse fill="cyan" stroke="cyan" cx="43.84" cy="-479.16" rx="43.68" ry="26.74"/>
<text text-anchor="middle" x="43.84" y="-482.96" font-family="Indie Flower" font-size="14.00">TXT</text>
<text text-anchor="middle" x="43.84" y="-467.96" font-family="Indie Flower" font-size="14.00">UTF&#45;16</text>
</g>
<!-- csf&#45;&gt;txt -->
<g id="edge46" class="edge">
<title>csf&#45;&gt;txt</title>
<path fill="none" stroke="#458b74" d="M344.05,-412.35C270.81,-425.26 157.16,-448.67 92.75,-464.28"/>
<polygon fill="#458b74" stroke="#458b74" points="91.72,-460.93 82.84,-466.72 93.39,-467.73 91.72,-460.93"/>
</g>
<!-- dbf -->
<g id="node17" class="node">
<title>dbf</title>
<ellipse fill="cyan" stroke="cyan" cx="36.23" cy="-400.04" rx="28.7" ry="18"/>
<text text-anchor="middle" x="36.23" y="-396.34" font-family="Indie Flower" font-size="14.00">DBF</text>
</g>
<!-- csf&#45;&gt;dbf -->
<g id="edge48" class="edge">
<title>csf&#45;&gt;dbf</title>
<path fill="none" stroke="#458b74" d="M343.77,-397.63C264.53,-394.72 137.86,-393.86 74.68,-396.12"/>
<polygon fill="#458b74" stroke="#458b74" points="74.22,-392.64 64.37,-396.55 74.51,-399.63 74.22,-392.64"/>
</g>
<!-- dif -->
<g id="node18" class="node">
<title>dif</title>
<ellipse fill="cyan" stroke="cyan" cx="42.05" cy="-337.58" rx="27" ry="18"/>
<text text-anchor="middle" x="42.05" y="-333.88" font-family="Indie Flower" font-size="14.00">DIF</text>
</g>
<!-- csf&#45;&gt;dif -->
<g id="edge32" class="edge">
<title>csf&#45;&gt;dif</title>
<path fill="none" stroke="#458b74" d="M345.74,-386.19C267.48,-370.06 141.4,-348.01 79.2,-339.91"/>
<polygon fill="#458b74" stroke="#458b74" points="79.42,-336.41 69.06,-338.65 78.55,-343.36 79.42,-336.41"/>
</g>
<!-- slk -->
<g id="node19" class="node">
<title>slk</title>
<ellipse fill="cyan" stroke="cyan" cx="59.69" cy="-272.68" rx="33.29" ry="18"/>
<text text-anchor="middle" x="59.69" y="-268.98" font-family="Indie Flower" font-size="14.00">SYLK</text>
</g>
<!-- csf&#45;&gt;slk -->
<g id="edge30" class="edge">
<title>csf&#45;&gt;slk</title>
<path fill="none" stroke="#458b74" d="M349.92,-374.46C277.49,-345.38 161.16,-302.63 100.09,-282.93"/>
<polygon fill="#458b74" stroke="#458b74" points="101.01,-279.55 90.42,-279.87 98.89,-286.23 101.01,-279.55"/>
</g>
<!-- prn -->
<g id="node20" class="node">
<title>prn</title>
<ellipse fill="cyan" stroke="cyan" cx="89.74" cy="-210.01" rx="29.5" ry="18"/>
<text text-anchor="middle" x="89.74" y="-206.31" font-family="Indie Flower" font-size="14.00">PRN</text>
</g>
<!-- csf&#45;&gt;prn -->
<g id="edge42" class="edge">
<title>csf&#45;&gt;prn</title>
<path fill="none" stroke="#458b74" d="M356.36,-363.32C288.77,-320.34 178.35,-254.72 123.22,-225.16"/>
<polygon fill="#458b74" stroke="#458b74" points="124.7,-221.99 114.22,-220.41 121.43,-228.18 124.7,-221.99"/>
</g>
<!-- rtf -->
<g id="node21" class="node">
<title>rtf</title>
<ellipse fill="cyan" stroke="cyan" cx="127.35" cy="-157.84" rx="27.9" ry="18"/>
<text text-anchor="middle" x="127.35" y="-154.14" font-family="Indie Flower" font-size="14.00">RTF</text>
</g>
<!-- csf&#45;&gt;rtf -->
<g id="edge40" class="edge">
<title>csf&#45;&gt;rtf</title>
<path fill="none" stroke="#458b74" d="M360.21,-358.02C298.04,-304.57 197.75,-218.36 151.79,-178.85"/>
<polygon fill="#458b74" stroke="#458b74" points="153.98,-176.12 144.12,-172.25 149.42,-181.43 153.98,-176.12"/>
</g>
<!-- wk1 -->
<g id="node22" class="node">
<title>wk1</title>
<ellipse fill="cyan" stroke="cyan" cx="174.29" cy="-112" rx="30.59" ry="18"/>
<text text-anchor="middle" x="174.29" y="-108.3" font-family="Indie Flower" font-size="14.00">WK1</text>
</g>
<!-- csf&#45;&gt;wk1 -->
<g id="edge34" class="edge">
<title>csf&#45;&gt;wk1</title>
<path fill="none" stroke="#458b74" d="M373.36,-346.44C323.28,-281.83 239.2,-179.96 198.15,-134.79"/>
<polygon fill="#458b74" stroke="#458b74" points="200.59,-132.27 191.24,-127.28 195.44,-137.01 200.59,-132.27"/>
</g>
<!-- wk3 -->
<g id="node24" class="node">
<title>wk3</title>
<ellipse fill="cyan" stroke="cyan" cx="230.73" cy="-73.72" rx="30.59" ry="18"/>
<text text-anchor="middle" x="230.73" y="-70.02" font-family="Indie Flower" font-size="14.00">WK3</text>
</g>
<!-- csf&#45;&gt;wk3 -->
<g id="edge18" class="edge">
<title>csf&#45;&gt;wk3</title>
<path fill="none" stroke="blue" d="M384.33,-340.17C346.31,-266.87 281.03,-149.9 249.12,-98.87"/>
<polygon fill="blue" stroke="blue" points="251.89,-96.69 243.57,-90.13 245.98,-100.45 251.89,-96.69"/>
</g>
<!-- eth -->
<g id="node32" class="node">
<title>eth</title>
<ellipse fill="cyan" stroke="cyan" cx="291.3" cy="-46.85" rx="28.7" ry="18"/>
<text text-anchor="middle" x="291.3" y="-43.15" font-family="Indie Flower" font-size="14.00">ETH</text>
</g>
<!-- csf&#45;&gt;eth -->
<g id="edge51" class="edge">
<title>csf&#45;&gt;eth</title>
<path fill="none" stroke="#458b74" d="M395.89,-336.08C371.11,-256.68 326.85,-128.82 304.52,-73.62"/>
<polygon fill="#458b74" stroke="#458b74" points="307.67,-72.09 300.62,-64.19 301.21,-74.77 307.67,-72.09"/>
</g>
<!-- xls2&#45;&gt;csf -->
<g id="edge24" class="edge">
<title>xls2&#45;&gt;csf</title>
<path fill="none" stroke="#458b74" d="M753.25,-399.45C693.11,-396.65 573.17,-396.18 493.07,-398.05"/>
<polygon fill="#458b74" stroke="#458b74" points="492.92,-394.55 483.01,-398.3 493.1,-401.55 492.92,-394.55"/>
</g>
<!-- xls3&#45;&gt;csf -->
<g id="edge26" class="edge">
<title>xls3&#45;&gt;csf</title>
<path fill="none" stroke="#458b74" d="M747.79,-473.47C690.3,-457.8 571.89,-431.09 492.53,-415.44"/>
<polygon fill="#458b74" stroke="#458b74" points="493.05,-411.98 482.57,-413.5 491.71,-418.85 493.05,-411.98"/>
</g>
<!-- xls4&#45;&gt;csf -->
<g id="edge28" class="edge">
<title>xls4&#45;&gt;csf</title>
<path fill="none" stroke="#458b74" d="M726.87,-545.2C675,-517.77 563.3,-465.18 488.2,-432.32"/>
<polygon fill="#458b74" stroke="#458b74" points="489.34,-429 478.77,-428.22 486.55,-435.42 489.34,-429"/>
</g>
<!-- xls5&#45;&gt;csf -->
<g id="edge8" class="edge">
<title>xls5&#45;&gt;csf</title>
<path fill="none" stroke="blue" d="M690.61,-611.1C646.74,-573.63 547.39,-496.82 480.31,-447.87"/>
<polygon fill="blue" stroke="blue" points="482.03,-444.8 471.88,-441.75 477.91,-450.46 482.03,-444.8"/>
</g>
<!-- xls8&#45;&gt;csf -->
<g id="edge10" class="edge">
<title>xls8&#45;&gt;csf</title>
<path fill="none" stroke="blue" d="M640.37,-667.64C606.25,-622.16 524.54,-524.1 469.01,-461.12"/>
<polygon fill="blue" stroke="blue" points="471.62,-458.79 462.37,-453.62 466.38,-463.43 471.62,-458.79"/>
</g>
<!-- xlml&#45;&gt;csf -->
<g id="edge6" class="edge">
<title>xlml&#45;&gt;csf</title>
<path fill="none" stroke="blue" d="M570.33,-715.83C548.54,-663.98 492.39,-547.88 453.44,-472.8"/>
<polygon fill="blue" stroke="blue" points="456.5,-471.11 448.78,-463.86 450.3,-474.34 456.5,-471.11"/>
</g>
<!-- xlsx&#45;&gt;csf -->
<g id="edge2" class="edge">
<title>xlsx&#45;&gt;csf</title>
<path fill="none" stroke="blue" d="M489.73,-745.57C481.38,-690.48 455.03,-563.36 435.43,-480.6"/>
<polygon fill="blue" stroke="blue" points="438.8,-479.65 433.07,-470.74 431.99,-481.28 438.8,-479.65"/>
</g>
<!-- xlsb&#45;&gt;csf -->
<g id="edge4" class="edge">
<title>xlsb&#45;&gt;csf</title>
<path fill="none" stroke="blue" d="M408.15,-753.66C412.83,-697.93 416.76,-568.36 416.93,-483.47"/>
<polygon fill="blue" stroke="blue" points="420.43,-483.35 416.94,-473.35 413.43,-483.35 420.43,-483.35"/>
</g>
<!-- nums&#45;&gt;csf -->
<g id="edge22" class="edge">
<title>nums&#45;&gt;csf</title>
<path fill="none" stroke="blue" d="M308.97,-745.49C327.76,-698.09 369.92,-567 394.67,-481.62"/>
<polygon fill="blue" stroke="blue" points="398.05,-482.54 397.45,-471.96 391.32,-480.61 398.05,-482.54"/>
</g>
<!-- ods&#45;&gt;csf -->
<g id="edge12" class="edge">
<title>ods&#45;&gt;csf</title>
<path fill="none" stroke="blue" d="M229.64,-708.37C259.96,-665.94 331.65,-550.97 376.04,-475.01"/>
<polygon fill="blue" stroke="blue" points="379.31,-476.35 381.31,-465.95 373.25,-472.83 379.31,-476.35"/>
</g>
<!-- fods&#45;&gt;csf -->
<g id="edge14" class="edge">
<title>fods&#45;&gt;csf</title>
<path fill="none" stroke="blue" d="M176.15,-665.09C215.32,-627.8 305.77,-531.13 363,-466.36"/>
<polygon fill="blue" stroke="blue" points="365.83,-468.44 369.81,-458.62 360.57,-463.82 365.83,-468.44"/>
</g>
<!-- uos -->
<g id="node13" class="node">
<title>uos</title>
<ellipse fill="cyan" stroke="cyan" cx="355.64" cy="-31" rx="30.59" ry="18"/>
<text text-anchor="middle" x="355.64" y="-27.3" font-family="Indie Flower" font-size="14.00">UOS</text>
</g>
<!-- uos&#45;&gt;csf -->
<g id="edge16" class="edge">
<title>uos&#45;&gt;csf</title>
<path fill="none" stroke="blue" d="M358.42,-48.98C366,-97.91 387.33,-235.76 401.07,-324.5"/>
<polygon fill="blue" stroke="blue" points="397.63,-325.18 402.62,-334.53 404.55,-324.11 397.63,-325.18"/>
</g>
<!-- html&#45;&gt;csf -->
<g id="edge49" class="edge">
<title>html&#45;&gt;csf</title>
<path fill="none" stroke="#458b74" d="M134.59,-603.02C184.75,-571.6 285.28,-502.14 350.91,-454.07"/>
<polygon fill="#458b74" stroke="#458b74" points="353.15,-456.77 359.14,-448.02 349.01,-451.13 353.15,-456.77"/>
</g>
<!-- csv&#45;&gt;csf -->
<g id="edge43" class="edge">
<title>csv&#45;&gt;csf</title>
<path fill="none" stroke="#458b74" d="M94.2,-547.45C146.65,-528.05 265.66,-476.64 342.6,-440.79"/>
<polygon fill="#458b74" stroke="#458b74" points="344.2,-443.91 351.77,-436.5 341.23,-437.57 344.2,-443.91"/>
</g>
<!-- txt&#45;&gt;csf -->
<g id="edge45" class="edge">
<title>txt&#45;&gt;csf</title>
<path fill="none" stroke="#458b74" d="M87.49,-474.85C148.63,-464.96 260.72,-442.44 336.13,-425.2"/>
<polygon fill="#458b74" stroke="#458b74" points="337.1,-428.57 346.05,-422.92 335.52,-421.75 337.1,-428.57"/>
</g>
<!-- dbf&#45;&gt;csf -->
<g id="edge47" class="edge">
<title>dbf&#45;&gt;csf</title>
<path fill="none" stroke="#458b74" d="M64.23,-404.06C120.46,-407.82 248.93,-409.69 333.36,-408.54"/>
<polygon fill="#458b74" stroke="#458b74" points="333.48,-412.04 343.43,-408.39 333.37,-405.04 333.48,-412.04"/>
</g>
<!-- dif&#45;&gt;csf -->
<g id="edge39" class="edge">
<title>dif&#45;&gt;csf</title>
<path fill="none" stroke="#458b74" d="M66.36,-345.56C119.67,-358.46 248.86,-382.15 333.67,-395.22"/>
<polygon fill="#458b74" stroke="#458b74" points="333.37,-398.72 343.78,-396.76 334.43,-391.8 333.37,-398.72"/>
</g>
<!-- slk&#45;&gt;csf -->
<g id="edge31" class="edge">
<title>slk&#45;&gt;csf</title>
<path fill="none" stroke="#458b74" d="M83.29,-285.33C134.11,-307.67 255.79,-353.44 336.35,-381.18"/>
<polygon fill="#458b74" stroke="#458b74" points="335.37,-384.54 345.96,-384.47 337.64,-377.92 335.37,-384.54"/>
</g>
<!-- prn&#45;&gt;csf -->
<g id="edge41" class="edge">
<title>prn&#45;&gt;csf</title>
<path fill="none" stroke="#458b74" d="M107.26,-224.48C150.82,-254.64 265.79,-324.31 341.77,-367.42"/>
<polygon fill="#458b74" stroke="#458b74" points="340.4,-370.67 350.83,-372.54 343.85,-364.58 340.4,-370.67"/>
</g>
<!-- wk1&#45;&gt;csf -->
<g id="edge33" class="edge">
<title>wk1&#45;&gt;csf</title>
<path fill="none" stroke="#458b74" d="M184.31,-129.31C213.71,-170.98 300.37,-277.99 358.3,-345.42"/>
<polygon fill="#458b74" stroke="#458b74" points="355.68,-347.74 364.86,-353.03 360.98,-343.17 355.68,-347.74"/>
</g>
<!-- wksl -->
<g id="node23" class="node">
<title>wksl</title>
<ellipse fill="cyan" stroke="cyan" cx="428.51" cy="-26.87" rx="35.21" ry="26.74"/>
<text text-anchor="middle" x="428.51" y="-30.67" font-family="Indie Flower" font-size="14.00">WKS</text>
<text text-anchor="middle" x="428.51" y="-15.67" font-family="Indie Flower" font-size="14.00">Lotus</text>
</g>
<!-- wksl&#45;&gt;csf -->
<g id="edge37" class="edge">
<title>wksl&#45;&gt;csf</title>
<path fill="none" stroke="#458b74" d="M427.42,-53.97C425.17,-109.67 419.97,-238.9 416.55,-323.7"/>
<polygon fill="#458b74" stroke="#458b74" points="413.05,-323.68 416.14,-333.82 420.04,-323.97 413.05,-323.68"/>
</g>
<!-- wk3&#45;&gt;csf -->
<g id="edge17" class="edge">
<title>wk3&#45;&gt;csf</title>
<path fill="none" stroke="blue" d="M237.03,-91.6C257.98,-137.18 324.61,-259.29 369.76,-336.57"/>
<polygon fill="blue" stroke="blue" points="366.8,-338.45 374.88,-345.3 372.83,-334.91 366.8,-338.45"/>
</g>
<!-- wk4 -->
<g id="node25" class="node">
<title>wk4</title>
<ellipse fill="cyan" stroke="cyan" cx="500.81" cy="-36.85" rx="30.59" ry="18"/>
<text text-anchor="middle" x="500.81" y="-33.15" font-family="Indie Flower" font-size="14.00">WK4</text>
</g>
<!-- wk4&#45;&gt;csf -->
<g id="edge19" class="edge">
<title>wk4&#45;&gt;csf</title>
<path fill="none" stroke="blue" d="M496.53,-54.79C484.99,-103.2 452.67,-238.7 431.88,-325.89"/>
<polygon fill="blue" stroke="blue" points="428.44,-325.21 429.53,-335.75 435.25,-326.83 428.44,-325.21"/>
</g>
<!-- 123 -->
<g id="node26" class="node">
<title>123</title>
<ellipse fill="cyan" stroke="cyan" cx="562.2" cy="-57.19" rx="27" ry="18"/>
<text text-anchor="middle" x="562.2" y="-53.49" font-family="Indie Flower" font-size="14.00">123</text>
</g>
<!-- 123&#45;&gt;csf -->
<g id="edge20" class="edge">
<title>123&#45;&gt;csf</title>
<path fill="none" stroke="blue" d="M554.61,-74.85C534.7,-121.19 480.06,-248.36 444.86,-330.29"/>
<polygon fill="blue" stroke="blue" points="441.61,-328.98 440.88,-339.55 448.04,-331.75 441.61,-328.98"/>
</g>
<!-- wksm -->
<g id="node27" class="node">
<title>wksm</title>
<ellipse fill="cyan" stroke="cyan" cx="626.15" cy="-92.35" rx="38.78" ry="26.74"/>
<text text-anchor="middle" x="626.15" y="-96.15" font-family="Indie Flower" font-size="14.00">WKS</text>
<text text-anchor="middle" x="626.15" y="-81.15" font-family="Indie Flower" font-size="14.00">Works</text>
</g>
<!-- wksm&#45;&gt;csf -->
<g id="edge38" class="edge">
<title>wksm&#45;&gt;csf</title>
<path fill="none" stroke="#458b74" d="M609.45,-116.78C577.31,-163.8 505.87,-268.3 458.67,-337.35"/>
<polygon fill="#458b74" stroke="#458b74" points="455.5,-335.78 452.75,-346.01 461.28,-339.73 455.5,-335.78"/>
</g>
<!-- xlr -->
<g id="node28" class="node">
<title>xlr</title>
<ellipse fill="cyan" stroke="cyan" cx="682.79" cy="-139.85" rx="27.9" ry="18"/>
<text text-anchor="middle" x="682.79" y="-136.15" font-family="Indie Flower" font-size="14.00">XLR</text>
</g>
<!-- xlr&#45;&gt;csf -->
<g id="edge35" class="edge">
<title>xlr&#45;&gt;csf</title>
<path fill="none" stroke="#458b74" d="M667.14,-155.17C629.68,-191.84 533.36,-286.15 470.74,-347.47"/>
<polygon fill="#458b74" stroke="#458b74" points="467.97,-345.28 463.27,-354.78 472.87,-350.28 467.97,-345.28"/>
</g>
<!-- wq1 -->
<g id="node29" class="node">
<title>wq1</title>
<ellipse fill="cyan" stroke="cyan" cx="725.17" cy="-191.62" rx="31.7" ry="18"/>
<text text-anchor="middle" x="725.17" y="-187.92" font-family="Indie Flower" font-size="14.00">WQ1</text>
</g>
<!-- wq1&#45;&gt;csf -->
<g id="edge36" class="edge">
<title>wq1&#45;&gt;csf</title>
<path fill="none" stroke="#458b74" d="M704.71,-205.53C659.79,-236.08 550.87,-310.15 479.67,-358.56"/>
<polygon fill="#458b74" stroke="#458b74" points="477.48,-355.82 471.18,-364.34 481.42,-361.61 477.48,-355.82"/>
</g>
<!-- wq2 -->
<g id="node30" class="node">
<title>wq2</title>
<ellipse fill="cyan" stroke="cyan" cx="760.41" cy="-256.21" rx="34.8" ry="26.74"/>
<text text-anchor="middle" x="760.41" y="-260.01" font-family="Indie Flower" font-size="14.00">WQ2</text>
<text text-anchor="middle" x="760.41" y="-245.01" font-family="Indie Flower" font-size="14.00">WB*</text>
</g>
<!-- wq2&#45;&gt;csf -->
<g id="edge11" class="edge">
<title>wq2&#45;&gt;csf</title>
<path fill="none" stroke="blue" d="M729.92,-269.16C676.06,-292.05 562.68,-340.22 487.26,-372.27"/>
<polygon fill="blue" stroke="blue" points="485.63,-369.16 477.8,-376.29 488.37,-375.6 485.63,-369.16"/>
</g>
<!-- qpw -->
<g id="node31" class="node">
<title>qpw</title>
<ellipse fill="cyan" stroke="cyan" cx="782.58" cy="-327.05" rx="32.49" ry="18"/>
<text text-anchor="middle" x="782.58" y="-323.35" font-family="Indie Flower" font-size="14.00">QPW</text>
</g>
<!-- qpw&#45;&gt;csf -->
<g id="edge21" class="edge">
<title>qpw&#45;&gt;csf</title>
<path fill="none" stroke="blue" d="M752.05,-333.38C695.54,-345.11 573.04,-370.53 491.9,-387.38"/>
<polygon fill="blue" stroke="blue" points="490.8,-384.03 481.72,-389.49 492.22,-390.88 490.8,-384.03"/>
</g>
<!-- eth&#45;&gt;csf -->
<g id="edge52" class="edge">
<title>eth&#45;&gt;csf</title>
<path fill="none" stroke="#458b74" d="M294.25,-65.07C306.72,-113.21 351.17,-245.78 382.2,-330.05"/>
<polygon fill="#458b74" stroke="#458b74" points="378.97,-331.41 385.72,-339.57 385.53,-328.98 378.97,-331.41"/>
</g>
</g>
</svg>
